<svg xmlns="http://www.w3.org/2000/svg" viewBox="0 0 512 512">
<rect width="512" height="512" rx="100" fill="#0f1117"/>
<rect x="80" y="110" width="352" height="290" rx="22" fill="#1a1d27" stroke="#2e3350" stroke-width="3"/>
<rect x="105" y="130" width="302" height="90" rx="10" fill="#0f1117" stroke="#2e3350" stroke-width="2"/>
<text x="256" y="168" fill="#22c55e" font-family="monospace" font-weight="bold" font-size="22" text-anchor="middle">StánokPOS</text>
<text x="256" y="208" fill="#f59e0b" font-family="monospace" font-weight="bold" font-size="32" text-anchor="middle">€ 12,50</text>
<rect x="100" y="238" width="38" height="28" rx="5" fill="#22263a" stroke="#2e3350" stroke-width="1.5"/>
<rect x="147" y="238" width="38" height="28" rx="5" fill="#22263a" stroke="#2e3350" stroke-width="1.5"/>
<rect x="194" y="238" width="38" height="28" rx="5" fill="#22263a" stroke="#2e3350" stroke-width="1.5"/>
<rect x="100" y="276" width="38" height="28" rx="5" fill="#22263a" stroke="#2e3350" stroke-width="1.5"/>
<rect x="147" y="276" width="38" height="28" rx="5" fill="#22263a" stroke="#2e3350" stroke-width="1.5"/>
<rect x="194" y="276" width="38" height="28" rx="5" fill="#22263a" stroke="#2e3350" stroke-width="1.5"/>
<rect x="100" y="314" width="38" height="28" rx="5" fill="#22263a" stroke="#2e3350" stroke-width="1.5"/>
<rect x="147" y="314" width="38" height="28" rx="5" fill="#22263a" stroke="#2e3350" stroke-width="1.5"/>
<rect x="194" y="314" width="38" height="28" rx="5" fill="#22263a" stroke="#2e3350" stroke-width="1.5"/>
<rect x="241" y="238" width="38" height="28" rx="5" fill="#f59e0b"/>
<rect x="241" y="276" width="38" height="28" rx="5" fill="#f59e0b"/>
<rect x="241" y="314" width="85" height="28" rx="5" fill="#22c55e"/>
<rect x="288" y="238" width="38" height="28" rx="5" fill="#22263a" stroke="#2e3350" stroke-width="1.5"/>
<rect x="335" y="238" width="38" height="28" rx="5" fill="#22263a" stroke="#2e3350" stroke-width="1.5"/>
<rect x="288" y="276" width="38" height="28" rx="5" fill="#22263a" stroke="#2e3350" stroke-width="1.5"/>
<rect x="335" y="276" width="38" height="28" rx="5" fill="#22263a" stroke="#2e3350" stroke-width="1.5"/>
<rect x="75" y="395" width="362" height="40" rx="8" fill="#22263a" stroke="#f59e0b" stroke-width="2.5"/>
<rect x="206" y="380" width="100" height="18" rx="4" fill="#f1f5f9"/>
<rect x="210" y="384" width="92" height="2" fill="none" stroke="#64748b" stroke-width="1"/>
<rect x="210" y="389" width="92" height="2" fill="none" stroke="#64748b" stroke-width="1"/>
</svg>
